HIERARCHY
ROOT Hips
{
	OFFSET 0.000000 0.000000 0.000000
	CHANNELS 6 Xposition Yposition Zposition Zrotation Yrotation Xrotation
	JOINT LHipJoint
	{
		OFFSET 0.000000 0.000000 0.000000
		CHANNELS 3 Zrotation Yrotation Xrotation
		JOINT LeftUpLeg
		{
			OFFSET 1.363060 -1.794630 0.839290
			CHANNELS 3 Zrotation Yrotation Xrotation
			JOINT LeftLeg
			{
				OFFSET 2.448110 -6.726130 0.000000
				CHANNELS 3 Zrotation Yrotation Xrotation
				JOINT LeftFoot
				{
					OFFSET 2.562200 -7.039590 0.000000
					CHANNELS 3 Zrotation Yrotation Xrotation
					JOINT LeftToeBase
					{
						OFFSET 0.157640 -0.433110 2.322550
						CHANNELS 3 Zrotation Yrotation Xrotation
						End Site
						{
							OFFSET 0.000000 0.000000 0.000000
						}
					}
				}
			}
		}
	}
	JOINT RHipJoint
	{
		OFFSET 0.000000 0.000000 0.000000
		CHANNELS 3 Zrotation Yrotation Xrotation
		JOINT RightUpLeg
		{
			OFFSET -1.305520 -1.794630 0.839290
			CHANNELS 3 Zrotation Yrotation Xrotation
			JOINT RightLeg
			{
				OFFSET -2.542530 -6.985550 0.000000
				CHANNELS 3 Zrotation Yrotation Xrotation
				JOINT RightFoot
				{
					OFFSET -2.568260 -7.056230 0.000000
					CHANNELS 3 Zrotation Yrotation Xrotation
					JOINT RightToeBase
					{
						OFFSET -0.164730 -0.452590 2.363150
						CHANNELS 3 Zrotation Yrotation Xrotation
						End Site
						{
							OFFSET 0.000000 0.000000 0.000000
						}
					}
				}
			}
		}
	}
	JOINT LowerBack
	{
		OFFSET 0.000000 0.000000 0.000000
		CHANNELS 3 Zrotation Yrotation Xrotation
		JOINT Spine
		{
			OFFSET 0.028270 2.035590 -0.193380
			CHANNELS 3 Zrotation Yrotation Xrotation
			JOINT Spine1
			{
				OFFSET 0.056720 2.048850 -0.042750
				CHANNELS 3 Zrotation Yrotation Xrotation
				JOINT Neck
				{
					OFFSET 0.000000 0.000000 0.000000
					CHANNELS 3 Zrotation Yrotation Xrotation
					JOINT Neck1
					{
						OFFSET -0.054170 1.746240 0.172020
						CHANNELS 3 Zrotation Yrotation Xrotation
						JOINT Head
						{
							OFFSET 0.104070 1.761360 -0.123970
							CHANNELS 3 Zrotation Yrotation Xrotation
							End Site
							{
								OFFSET 0.000000 0.000000 0.000000
							}
						}
					}
				}
				JOINT LeftShoulder
				{
					OFFSET 0.000000 0.000000 0.000000
					CHANNELS 3 Zrotation Yrotation Xrotation
					JOINT LeftArm
					{
						OFFSET 3.362410 1.200890 -0.311210
						CHANNELS 3 Zrotation Yrotation Xrotation
						JOINT LeftForeArm
						{
							OFFSET 4.983000 -0.000000 -0.000000
							CHANNELS 3 Zrotation Yrotation Xrotation
							JOINT LeftHand
							{
								OFFSET 3.483560 -0.000000 -0.000000
								CHANNELS 3 Zrotation Yrotation Xrotation
								JOINT LeftFingerBase
								{
									OFFSET 0.000000 0.000000 0.000000
									CHANNELS 3 Zrotation Yrotation Xrotation
									JOINT LeftHandIndex1
									{
										OFFSET 0.715260 -0.000000 -0.000000
										CHANNELS 3 Zrotation Yrotation Xrotation
										End Site
										{
											OFFSET 0.000000 0.000000 0.000000
										}
									}
								}
								JOINT LThumb
								{
									OFFSET 0.000000 0.000000 0.000000
									CHANNELS 3 Zrotation Yrotation Xrotation
									End Site
									{
										OFFSET 0.000000 0.000000 0.000000
									}
								}
							}
						}
					}
				}
				JOINT RightShoulder
				{
					OFFSET 0.000000 0.000000 0.000000
					CHANNELS 3 Zrotation Yrotation Xrotation
					JOINT RightArm
					{
						OFFSET -3.136600 1.374050 -0.404650
						CHANNELS 3 Zrotation Yrotation Xrotation
						JOINT RightForeArm
						{
							OFFSET -5.241900 -0.000000 -0.000000
							CHANNELS 3 Zrotation Yrotation Xrotation
							JOINT RightHand
							{
								OFFSET -3.444170 -0.000000 -0.000000
								CHANNELS 3 Zrotation Yrotation Xrotation
								JOINT RightFingerBase
								{
									OFFSET 0.000000 0.000000 0.000000
									CHANNELS 3 Zrotation Yrotation Xrotation
									JOINT RightHandIndex1
									{
										OFFSET -0.622530 -0.000000 -0.000000
										CHANNELS 3 Zrotation Yrotation Xrotation
										End Site
										{
											OFFSET 0.000000 0.000000 0.000000
										}
									}
								}
								JOINT RThumb
								{
									OFFSET 0.000000 0.000000 0.000000
									CHANNELS 3 Zrotation Yrotation Xrotation
									End Site
									{
										OFFSET 0.000000 0.000000 0.000000
									}
								}
							}
						}
					}
				}
			}
		}
	}
}
MOTION
Frames: 11
Frame Time: 0.008333
2.801100 17.851100 -0.421913 -0.943466 0.030603 6.685755 -1.889587 17.864721 4.969343 -14.847416 -7.065584 -13.249440 1.025640 -1.131046 16.813922 21.653977 -4.977688 -5.186750 -6.831955 2.365388 -11.469130 -2.157698 -21.737114 -3.022919 21.140244 -2.365947 -9.039191 -3.596783 0.858075 22.386624 -31.873601 15.757189 -8.691534 6.498950 -3.770443 -10.519889 3.215976 4.186956 4.280797 10.667371 3.435993 15.544564 -13.260121 -10.053868 -30.529207 -3.940754 -1.356968 -14.911072 4.721653 -1.566909 11.288157 -1.769241 -0.766351 -7.928534 8.634168 34.479278 -3.293373 -24.189409 -26.729791 29.244210 3.315986 -18.610076 4.881023 3.091695 9.696347 1.758659 2.048165 11.832462 -0.000000 0.000000 0.000000 0.000000 0.000000 0.000000 0.000000 -19.128195 -40.991552 -8.182311 46.580741 23.514592 23.707695 -5.065720 12.907261 12.036596 -0.273294 -0.282206 3.853189 0.533003 -9.218851 -0.000000 0.000000 0.000000 0.000000 0.000000 0.000000 0.000000 
2.800815 17.848850 -0.421355 -0.932144 0.000126 6.685797 -1.904051 17.868369 4.931144 -14.870445 -7.095567 -13.284463 1.082333 -1.073536 16.998277 21.636174 -4.933717 -5.308184 -6.852731 2.369183 -11.526856 -2.133860 -21.730675 -3.027280 21.140313 -2.268753 -9.107287 -3.675946 0.767839 22.559311 -31.863582 15.661521 -8.805127 6.530702 -3.760968 -10.630860 3.214609 4.173227 4.330374 10.619948 3.429890 15.514364 -13.246690 -10.018873 -30.516464 -3.941569 -1.321669 -14.916504 4.749233 -1.537680 11.268750 -1.762579 -0.773229 -7.940996 8.648753 34.465218 -3.285574 -24.210743 -26.692150 29.224784 3.330790 -18.599247 4.893337 3.107343 9.742559 1.769309 2.061593 11.838533 -0.000000 0.000000 0.000000 0.000000 0.000000 0.000000 0.000000 -19.124895 -40.978333 -8.177074 46.593112 23.492529 23.694120 -5.071230 12.917910 12.027452 -0.275060 -0.278534 3.848158 0.530272 -9.217741 -0.000000 0.000000 0.000000 0.000000 0.000000 0.000000 0.000000 
2.800560 17.846750 -0.420267 -0.919127 -0.037791 6.682931 -1.919381 17.879059 4.896097 -14.894115 -7.119117 -13.317921 1.137596 -1.016745 17.179404 21.621232 -4.895843 -5.437587 -6.869704 2.373201 -11.574819 -2.110656 -21.719433 -3.031963 21.142833 -2.162894 -9.174211 -3.762276 0.674647 22.740512 -31.861204 15.556613 -8.916656 6.555333 -3.750403 -10.729390 3.215399 4.154150 4.373295 10.577540 3.417960 15.493373 -13.232780 -9.995213 -30.506424 -3.951598 -1.276227 -14.920691 4.783439 -1.498314 11.253772 -1.753383 -0.778880 -7.950914 8.672949 34.419367 -3.293574 -24.241718 -26.569028 29.111054 3.320445 -18.660655 4.823917 3.096855 9.805654 1.711050 2.062799 11.848617 -0.000000 0.000000 0.000000 0.000000 0.000000 0.000000 0.000000 -19.124597 -40.950427 -8.167406 46.625527 23.481656 23.677772 -5.084319 12.926932 12.043023 -0.283775 -0.275790 3.860269 0.523057 -9.215222 -0.000000 0.000000 0.000000 0.000000 0.000000 0.000000 0.000000 
2.800275 17.844800 -0.418747 -0.907050 -0.070060 6.678273 -1.934727 17.890052 4.862017 -14.918118 -7.145349 -13.353145 1.193872 -0.960842 17.366048 21.616161 -4.857773 -5.552740 -6.880713 2.377236 -11.610318 -2.087155 -21.713160 -3.038292 21.146435 -2.068488 -9.235815 -3.848067 0.581968 22.916035 -31.870128 15.451072 -9.026312 6.574704 -3.737575 -10.818992 3.215471 4.137403 4.415323 10.536517 3.407929 15.480317 -13.227122 -9.968815 -30.493000 -3.956173 -1.237028 -14.929546 4.814398 -1.465327 11.243104 -1.745444 -0.786128 -7.958126 8.683862 34.393293 -3.291359 -24.256675 -26.502590 29.060559 3.327036 -18.663132 4.811992 3.092804 9.798366 1.699858 2.063315 11.848443 -0.000000 0.000000 0.000000 0.000000 0.000000 0.000000 0.000000 -19.121903 -40.934832 -8.155422 46.651325 23.457041 23.670374 -5.093013 12.950157 12.043426 -0.297354 -0.259230 3.867605 0.510532 -9.210756 -0.000000 0.000000 0.000000 0.000000 0.000000 0.000000 0.000000 
2.800065 17.843000 -0.416652 -0.897418 -0.100772 6.671623 -1.951106 17.896933 4.826353 -14.940435 -7.172834 -13.385436 1.254412 -0.898243 17.559316 21.609076 -4.810387 -5.687444 -6.891256 2.380421 -11.649042 -2.064051 -21.709018 -3.042114 21.151404 -1.974059 -9.294808 -3.938403 0.489085 23.094224 -31.863231 15.343096 -9.150816 6.597960 -3.728527 -10.906218 3.214565 4.126570 4.455251 10.504668 3.402829 15.471574 -13.224384 -9.947435 -30.483344 -3.957584 -1.211233 -14.936349 4.838296 -1.444926 11.234650 -1.740025 -0.794934 -7.963835 8.685286 34.382157 -3.288352 -24.270554 -26.472600 29.046045 3.342227 -18.612911 4.835180 3.076818 9.705772 1.711984 2.050554 11.835856 -0.000000 0.000000 0.000000 0.000000 0.000000 0.000000 0.000000 -19.116274 -40.927015 -8.148414 46.674562 23.434725 23.664034 -5.099870 12.963571 12.049843 -0.298971 -0.248962 3.870558 0.509385 -9.208600 -0.000000 0.000000 0.000000 0.000000 0.000000 0.000000 0.000000 
2.799540 17.841200 -0.413262 -0.889062 -0.125227 6.658924 -1.964963 17.912281 4.801878 -14.949536 -7.188189 -13.418118 1.303643 -0.842177 17.742773 21.576264 -4.791210 -5.847955 -6.910260 2.382788 -11.699378 -2.037945 -21.706003 -3.046405 21.146534 -1.894390 -9.347079 -4.030193 0.387682 23.278426 -31.826131 15.234535 -9.296434 6.638258 -3.725501 -11.018901 3.207388 4.110248 4.479657 10.470999 3.391182 15.483359 -13.215768 -9.923765 -30.478645 -3.957252 -1.176951 -14.944598 4.868861 -1.417341 11.232681 -1.732544 -0.805324 -7.964892 8.688008 34.362518 -3.298492 -24.298634 -26.432741 29.002229 3.356836 -18.576674 4.840458 3.067159 9.706569 1.709457 2.044670 11.835714 -0.000000 0.000000 0.000000 0.000000 0.000000 0.000000 0.000000 -19.106152 -40.916687 -8.132582 46.691395 23.404607 23.672025 -5.105348 12.993652 12.054460 -0.306280 -0.240786 3.877396 0.503401 -9.206029 -0.000000 0.000000 0.000000 0.000000 0.000000 0.000000 0.000000 
2.800410 17.839100 -0.410571 -0.870634 -0.160210 6.650414 -1.985267 17.921422 4.767658 -14.976483 -7.212676 -13.443266 1.369313 -0.777590 17.942140 21.530762 -4.749868 -6.040934 -6.931865 2.392315 -11.744803 -2.007479 -21.702601 -3.052986 21.124546 -1.797123 -9.428027 -4.132332 0.265523 23.501341 -31.764743 15.113279 -9.475578 6.686949 -3.723623 -11.144998 3.211421 4.096930 4.523840 10.431313 3.382796 15.480076 -13.210885 -9.903877 -30.471949 -3.957578 -1.157872 -14.949672 4.886761 -1.402607 11.223772 -1.728669 -0.812545 -7.970280 8.693584 34.339334 -3.314538 -24.352513 -26.371857 28.934147 3.380668 -18.537100 4.840599 3.054376 9.702128 1.701064 2.038594 11.835080 -0.000000 0.000000 0.000000 0.000000 0.000000 0.000000 0.000000 -19.103848 -40.895646 -8.116385 46.707993 23.375057 23.669229 -5.107573 13.029353 12.047986 -0.308533 -0.242950 3.874505 0.501120 -9.204599 -0.000000 0.000000 0.000000 0.000000 0.000000 0.000000 0.000000 
2.801025 17.837450 -0.406551 -0.857035 -0.192245 6.638819 -2.004665 17.935566 4.743235 -14.991199 -7.234711 -13.473465 1.429330 -0.715365 18.140267 21.473676 -4.718801 -6.240976 -6.961565 2.398454 -11.812891 -1.979354 -21.699188 -3.062499 21.099593 -1.727898 -9.489091 -4.223233 0.153920 23.699663 -31.689591 15.009947 -9.654742 6.739698 -3.726071 -11.266456 3.212120 4.081888 4.557793 10.408150 3.371751 15.490662 -13.205169 -9.892430 -30.464636 -3.965971 -1.130044 -14.964867 4.907693 -1.377411 11.221795 -1.722694 -0.815615 -7.971810 8.696513 34.304784 -3.310603 -24.372291 -26.272426 28.863158 3.379437 -18.575710 4.797676 3.062043 9.794174 1.668962 2.051429 11.851179 -0.000000 0.000000 0.000000 0.000000 0.000000 0.000000 0.000000 -19.090962 -40.879454 -8.107739 46.724796 23.358482 23.675127 -5.112631 13.057623 12.051407 -0.311860 -0.231828 3.878087 0.498588 -9.202133 -0.000000 0.000000 0.000000 0.000000 0.000000 0.000000 0.000000 
2.801415 17.835650 -0.401220 -0.848969 -0.213541 6.627473 -2.019629 17.947091 4.721293 -15.000229 -7.254759 -13.499764 1.486126 -0.656172 18.328740 21.419481 -4.694110 -6.447714 -6.991626 2.400760 -11.888998 -1.951527 -21.693483 -3.070155 21.074318 -1.672372 -9.534946 -4.308064 0.052927 23.879209 -31.620765 14.920388 -9.848896 6.790490 -3.725983 -11.387428 3.204570 4.064639 4.587462 10.376779 3.357687 15.514840 -13.171933 -9.865364 -30.477826 -3.970058 -1.108140 -14.976392 4.923054 -1.357615 11.210215 -1.718394 -0.818168 -7.977577 8.699480 34.294223 -3.306877 -24.430973 -26.212727 28.833207 3.413116 -18.524160 4.843531 3.051725 9.720301 1.694780 2.042961 11.838659 -0.000000 0.000000 0.000000 0.000000 0.000000 0.000000 0.000000 -19.053146 -40.873305 -8.125051 46.722890 23.343198 23.652444 -5.132423 13.065511 12.046256 -0.325036 -0.191275 3.884332 0.485558 -9.197545 -0.000000 0.000000 0.000000 0.000000 0.000000 0.000000 0.000000 
2.802750 17.833550 -0.396148 -0.835001 -0.230659 6.618959 -2.039174 17.965244 4.687245 -15.021352 -7.263177 -13.523948 1.543124 -0.595924 18.522579 21.399538 -4.681414 -6.646120 -7.014251 2.398224 -11.961767 -1.926829 -21.693647 -3.071381 21.039672 -1.612471 -9.595464 -4.383639 -0.043527 24.061964 -31.534911 14.846265 -10.036631 6.841600 -3.728911 -11.495940 3.210460 4.051857 4.628537 10.350385 3.349021 15.513861 -13.169274 -9.851850 -30.466931 -3.976324 -1.086028 -14.992265 4.938561 -1.337913 11.214259 -1.713919 -0.820439 -7.976576 8.694773 34.273139 -3.296628 -24.454849 -26.164235 28.816143 3.415365 -18.511299 4.843949 3.045524 9.701564 1.690434 2.039252 11.837530 -0.000000 0.000000 0.000000 0.000000 0.000000 0.000000 0.000000 -19.035355 -40.866975 -8.117264 46.727451 23.311188 23.655146 -5.137630 13.100940 12.047649 -0.323197 -0.187425 3.884497 0.487761 -9.196912 -0.000000 0.000000 0.000000 0.000000 0.000000 0.000000 0.000000 
2.803365 17.831300 -0.389898 -0.826040 -0.236388 6.605700 -2.057032 17.995695 4.663255 -15.028855 -7.262660 -13.559193 1.586686 -0.543113 18.710248 21.389247 -4.691423 -6.821708 -7.031215 2.392194 -12.024724 -1.907552 -21.690735 -3.073512 21.010801 -1.571747 -9.631331 -4.452164 -0.125629 24.218003 -31.472208 14.784464 -10.207151 6.881744 -3.728821 -11.586758 3.215623 4.034429 4.654912 10.340354 3.334879 15.525982 -13.180774 -9.849518 -30.444448 -3.984349 -1.063983 -15.015411 4.952235 -1.317094 11.235613 -1.708893 -0.820129 -7.964581 8.682679 34.251107 -3.272310 -24.450539 -26.115408 28.814935 3.428248 -18.499943 4.853337 3.071681 9.723536 1.707304 2.062515 11.844344 -0.000000 0.000000 0.000000 0.000000 0.000000 0.000000 0.000000 -19.020081 -40.866987 -8.104301 46.745434 23.270099 23.660846 -5.135218 13.173346 12.040720 -0.324889 -0.188391 3.882027 0.486661 -9.194503 -0.000000 0.000000 0.000000 0.000000 0.000000 0.000000 0.000000 
